<?xml version="1.0" encoding="UTF-8" standalone="no"?>
<svg
   xmlns:dc="http://purl.org/dc/elements/1.1/"
   xmlns:cc="http://creativecommons.org/ns#"
   xmlns:rdf="http://www.w3.org/1999/02/22-rdf-syntax-ns#"
   xmlns:svg="http://www.w3.org/2000/svg"
   xmlns="http://www.w3.org/2000/svg"
   viewBox="0 0 1066.6667 1066.6667"
   height="1066.6667"
   width="1066.6667"
   xml:space="preserve"
   id="svg2"
   version="1.1"><metadata
     id="metadata8"><rdf:RDF><cc:Work
         rdf:about=""><dc:format>image/svg+xml</dc:format><dc:type
           rdf:resource="http://purl.org/dc/dcmitype/StillImage" /></cc:Work></rdf:RDF></metadata><defs
     id="defs6" /><g
     transform="matrix(1.3333333,0,0,-1.3333333,0,1066.6667)"
     id="g10"><g
       transform="scale(0.1)"
       id="g12"><path
         id="path14"
         style="fill:#ffffff;fill-opacity:1;fill-rule:nonzero;stroke:none"
         d="M 8000,0 H 0 V 2666.66 H 8000 V 0" /><path
         id="path16"
         style="fill:#232221;fill-opacity:1;fill-rule:nonzero;stroke:none"
         d="M 8000,2666.66 H 0 V 5333.33 H 8000 V 2666.66" /><path
         id="path18"
         style="fill:#100f0d;fill-opacity:1;fill-rule:nonzero;stroke:none"
         d="m 2822.76,1421.45 c -81.36,0 -155.85,-40.78 -204.38,-111.88 l -5.84,-8.55 -5.83,8.55 c -47.82,70.05 -122.17,111.88 -198.91,111.88 -54.19,0 -107.03,-18.88 -148.81,-53.14 l -11.54,-9.48 v 14.94 47.68 h -86.6 V 887.039 h 86.6 v 329.071 1.31 l 0.47,1.22 c 26.7,69.66 87.96,112.93 159.88,112.93 76.02,0 140.14,-50.99 163.35,-129.9 l 0.3,-1.01 -0.02,-1.06 -3.28,-310.381 h 86.6 v 304.991 0.93 l 0.24,0.9 c 22.04,82.33 87.89,135.53 167.77,135.53 75.53,0 140.07,-50.95 164.42,-129.81 l 0.32,-1.01 v -1.07 -310.461 h 84.43 l 1.07,282.661 c -6.24,49.55 -18.77,88.56 -38.31,119.27 -49.49,82.87 -126.7,130.3 -211.93,130.3" /><path
         id="path20"
         style="fill:#100f0d;fill-opacity:1;fill-rule:nonzero;stroke:none"
         d="m 3523.52,1175 v -46.99 l -0.08,-0.5 c -12.62,-88.35 -87.18,-154.971 -173.42,-154.971 -96.27,0 -174.58,80.771 -174.58,180.061 0,46.95 18.21,91.43 51.28,125.25 33.19,33.93 76.98,52.62 123.3,52.62 86.24,0 160.8,-66.62 173.42,-154.97 z m -173.5,240.97 c -141,0 -255.71,-118.14 -255.71,-263.37 0,-71.51 26.71,-138.45 75.2,-188.459 48.19,-49.719 112.3,-77.102 180.51,-77.102 60.18,0 116.15,20.613 161.84,59.609 l 11.66,9.961 v -15.328 -54.242 h 85.5 v 534.411 h -85.5 v -59.73 -15.32 l -11.66,9.95 c -45.69,39.01 -101.65,59.62 -161.84,59.62" /><path
         id="path22"
         style="fill:#100f0d;fill-opacity:1;fill-rule:nonzero;stroke:none"
         d="m 4465.71,1409.39 c -52.82,0 -104.67,-19.15 -149.97,-55.39 l -11.47,-9.18 v 14.7 333.44 h -87.7 V 887.031 h 86.62 l 1.08,306.099 v 1.06 l 0.31,1.02 c 23.86,76.31 88.6,127.58 161.13,127.58 75.52,0 138.78,-51.01 161.17,-129.95 l 0.28,-0.95 v -0.98 -303.879 h 83.38 c 2.11,245.329 2.13,262.969 2.13,278.339 -14.41,139.14 -120.52,244.02 -246.96,244.02" /><path
         id="path24"
         style="fill:#100f0d;fill-opacity:1;fill-rule:nonzero;stroke:none"
         d="m 5300.93,1178.56 c 1.91,5.98 5.69,8.63 8.52,9.8 7.03,2.89 13.55,-0.47 19.87,-3.72 9.53,-4.92 16.93,-8.05 25.5,-3.36 10.92,5.98 13.76,16.5 14.49,22.23 1.38,11.02 -2.54,22.32 -10.23,29.51 -5.71,5.33 -11.89,3.1 -23.61,-3.95 -6.48,-3.9 -13.17,-7.92 -20.26,-3.95 -2.44,1.38 -6.56,4.84 -6.6,12.54 -0.27,50.34 6.4,96 11.26,129.34 2.55,17.47 5.38,36.82 5.15,46.38 -14.95,-6.1 -32.2,-11.47 -46.63,-2.08 -12.03,7.84 -19.83,23.33 -20.85,41.43 -0.98,17.32 4.38,33.03 13.99,40.98 14.21,11.74 30.41,11.68 43.75,7.64 -14.75,77.33 -10.12,122.67 -7.55,138.25 h -24.31 -66.34 v -0.04 h -39.86 v -485.88 c 0,-94.93 -77.23,-172.149 -172.16,-172.149 -94.91,0 -172.14,77.219 -172.14,172.149 v 485.88 h -98.05 v -491.35 c 0,-78.92 43.82,-142.97 44.27,-143.62 50.2,-75.86 134.64,-121.098 225.92,-121.098 104.1,0 193.62,56.918 239.19,141.918 3.59,1.97 7.15,3.66 10.61,5.08 15.53,6.39 29.25,7.82 36.05,8.12 -5.87,54.59 -2.62,100.42 10.02,139.95" /><path
         id="path26"
         style="fill:#100f0d;fill-opacity:1;fill-rule:nonzero;stroke:none"
         d="m 5447.18,1541.53 h 127.26 c 88.21,0 165.58,-77.89 165.58,-166.68 0,-96.13 -74.28,-174.34 -165.58,-174.34 h -127.26 z m -98.04,-579.1 v -81.141 h 98.04 v 220.081 h 127.26 c 38.67,0 96.88,19.59 141.56,47.64 77.12,48.06 123.15,132.49 123.15,225.84 0,145.96 -118.75,264.71 -264.71,264.71 h -155.87 v 0.04 h -76.5 -9.36 -3.42 c -1.46,-7.11 -10.37,-58.19 11.15,-155.3 0.98,-4.39 -0.93,-8.91 -4.75,-11.29 -3.81,-2.37 -8.71,-2.09 -12.22,0.71 -0.87,0.69 -22.15,17.12 -38.43,3.65 -3.64,-3.01 -6.98,-12.02 -6.34,-23.45 0.64,-11.22 4.95,-20.74 11.26,-24.85 7.02,-4.6 21.43,1.51 32.99,6.42 l 1.74,0.74 c 1.39,0.6 2.87,0.9 4.42,0.83 4.66,-0.12 8.86,-2.13 11.82,-5.66 8.33,-9.9 5.51,-29.14 -0.09,-67.47 -4.35,-29.84 -10.18,-69.76 -10.96,-113.59 10.95,6.03 28.13,12.67 43.66,-1.83 12.78,-11.93 19.05,-29.75 16.79,-47.65 -2.09,-16.59 -11.32,-30.5 -25.34,-38.17 -19.11,-10.46 -36.21,-1.63 -45.39,3.12 -0.11,0.04 -0.22,0.11 -0.34,0.17 -10.32,-35.86 -12.64,-77.61 -7.07,-127.36 0.17,-1.55 -0.02,-3.05 -0.47,-4.45 14.7,-6.07 24.32,-17.26 30.35,-35.158 3.37,-10 5.65,-22.082 7.07,-36.582" /><path
         id="path28"
         style="fill:#100f0d;fill-opacity:1;fill-rule:nonzero;stroke:none"
         d="m 3775.96,1421.47 v 272.61 h -87.69 v -272.63 h -57.73 v -89.88 h 57.73 v -14.13 -430.401 h 87.69 v 430.401 14.13 0.02 h 57.73 v 89.88 h -57.73" /><path
         id="path30"
         style="fill:#100f0d;fill-opacity:1;fill-rule:nonzero;stroke:none"
         d="m 4194.65,1387.51 c 0,-26.12 0,-52.98 0,-83.7 -61.31,44.72 -126.11,53.38 -195.27,33.38 -40.11,-11.6 -71.68,-35.71 -95.4,-69.2 -46.14,-65.12 -42.46,-175.25 5.89,-234.37 35.41,-43.311 81.43,-66.21 136.2,-71.96 54.11,-5.668 102.61,10.602 148.54,43.82 0,-30.66 0,-58.109 0,-84.988 -73.21,-50.332 -235.21,-51.133 -328.9,48.25 -91.07,96.608 -91.82,275.568 -0.45,371.838 89.61,94.41 249.85,100.75 329.39,46.93" /><path
         id="path32"
         style="fill:#ffffff;fill-opacity:1;fill-rule:nonzero;stroke:none"
         d="M 8000,5333.33 H 0 V 8000 H 8000 V 5333.33" /><path
         id="path34"
         style="fill:#ffffff;fill-opacity:1;fill-rule:nonzero;stroke:none"
         d="m 3767.3,4042.07 v 0" /><path
         id="path36"
         style="fill:#ffffff;fill-opacity:1;fill-rule:nonzero;stroke:none"
         d="m 2822.76,4102.07 c -81.36,0 -155.85,-40.78 -204.38,-111.88 l -5.84,-8.55 -5.83,8.55 c -47.82,70.05 -122.17,111.88 -198.91,111.88 -54.19,0 -107.03,-18.87 -148.81,-53.14 l -11.54,-9.47 v 14.93 47.68 h -86.6 v -534.41 h 86.6 v 329.06 1.31 l 0.47,1.22 c 26.7,69.66 87.96,112.94 159.88,112.94 76.02,0 140.14,-50.98 163.35,-129.9 l 0.3,-1.01 -0.02,-1.06 -3.28,-310.37 h 86.6 v 304.98 0.93 l 0.24,0.89 c 22.04,82.34 87.89,135.54 167.77,135.54 75.53,0 140.07,-50.96 164.42,-129.8 l 0.32,-1.03 v -1.06 -310.45 h 84.43 l 1.07,282.65 c -6.24,49.54 -18.77,88.56 -38.31,119.26 -49.49,82.88 -126.7,130.31 -211.93,130.31" /><path
         id="path38"
         style="fill:#ffffff;fill-opacity:1;fill-rule:nonzero;stroke:none"
         d="m 3523.52,3855.62 v -46.99 l -0.08,-0.5 c -12.62,-88.34 -87.18,-154.96 -173.42,-154.96 -96.27,0 -174.58,80.77 -174.58,180.05 0,46.95 18.21,91.43 51.28,125.24 33.19,33.94 76.98,52.63 123.3,52.63 86.24,0 160.8,-66.62 173.42,-154.97 z m -173.5,240.98 c -141,0 -255.71,-118.15 -255.71,-263.38 0,-71.51 26.71,-138.44 75.2,-188.47 48.19,-49.72 112.3,-77.09 180.51,-77.09 60.18,0 116.15,20.62 161.84,59.62 l 11.66,9.94 v -15.31 -54.25 h 85.5 v 534.41 h -85.5 v -59.72 -15.32 l -11.66,9.94 c -45.69,39.01 -101.65,59.63 -161.84,59.63" /><path
         id="path40"
         style="fill:#ffffff;fill-opacity:1;fill-rule:nonzero;stroke:none"
         d="m 4465.71,4090.01 c -52.82,0 -104.67,-19.16 -149.97,-55.39 l -11.47,-9.18 v 14.7 333.44 h -87.7 v -805.94 h 86.62 l 1.08,306.1 v 1.07 l 0.31,1.01 c 23.86,76.32 88.6,127.59 161.13,127.59 75.52,0 138.78,-51 161.17,-129.95 l 0.28,-0.95 v -0.98 -303.89 h 83.38 c 2.11,245.34 2.13,262.99 2.13,278.34 -14.41,139.15 -120.52,244.03 -246.96,244.03" /><path
         id="path42"
         style="fill:#ffffff;fill-opacity:1;fill-rule:nonzero;stroke:none"
         d="m 5300.93,3859.18 c 1.91,5.98 5.69,8.63 8.52,9.81 7.03,2.89 13.55,-0.47 19.87,-3.73 9.53,-4.91 16.93,-8.05 25.5,-3.36 10.92,5.98 13.76,16.49 14.49,22.23 1.38,11.01 -2.54,22.32 -10.23,29.51 -5.71,5.33 -11.89,3.1 -23.61,-3.95 -6.48,-3.9 -13.17,-7.93 -20.26,-3.95 -2.44,1.37 -6.56,4.84 -6.6,12.55 -0.27,50.34 6.4,95.99 11.26,129.33 2.55,17.47 5.38,36.82 5.15,46.38 -14.95,-6.1 -32.2,-11.47 -46.63,-2.07 -12.03,7.84 -19.83,23.32 -20.85,41.41 -0.98,17.33 4.38,33.04 13.99,40.99 14.21,11.74 30.41,11.67 43.75,7.64 -14.75,77.33 -10.12,122.67 -7.55,138.25 h -24.31 -66.34 v -0.04 h -39.86 V 3834.3 c 0,-94.93 -77.23,-172.15 -172.16,-172.15 -94.91,0 -172.14,77.22 -172.14,172.15 v 485.88 h -98.05 v -491.36 c 0,-78.91 43.82,-142.97 44.27,-143.6 50.2,-75.86 134.64,-121.11 225.92,-121.11 104.1,0 193.62,56.93 239.19,141.93 3.59,1.95 7.15,3.65 10.61,5.08 15.53,6.37 29.25,7.82 36.05,8.11 -5.87,54.58 -2.62,100.41 10.02,139.95" /><path
         id="path44"
         style="fill:#ffffff;fill-opacity:1;fill-rule:nonzero;stroke:none"
         d="m 5447.18,4222.14 h 127.26 c 88.21,0 165.58,-77.88 165.58,-166.67 0,-96.13 -74.28,-174.34 -165.58,-174.34 h -127.26 z m -98.04,-579.1 v -81.12 h 98.04 V 3782 h 127.26 c 38.67,0 96.88,19.59 141.56,47.62 77.12,48.07 123.15,132.5 123.15,225.85 0,145.96 -118.75,264.71 -264.71,264.71 h -155.87 v 0.04 h -76.5 -9.36 -3.42 c -1.46,-7.1 -10.37,-58.19 11.15,-155.3 0.98,-4.39 -0.93,-8.92 -4.75,-11.29 -3.81,-2.37 -8.71,-2.09 -12.22,0.72 -0.87,0.68 -22.15,17.11 -38.43,3.64 -3.64,-3.01 -6.98,-12.03 -6.34,-23.45 0.64,-11.22 4.95,-20.75 11.26,-24.85 7.02,-4.6 21.43,1.52 32.99,6.43 l 1.74,0.73 c 1.39,0.6 2.87,0.9 4.42,0.83 4.66,-0.13 8.86,-2.13 11.82,-5.66 8.33,-9.91 5.51,-29.14 -0.09,-67.47 -4.35,-29.84 -10.18,-69.75 -10.96,-113.59 10.95,6.03 28.13,12.68 43.66,-1.83 12.78,-11.93 19.05,-29.74 16.79,-47.65 -2.09,-16.59 -11.32,-30.5 -25.34,-38.18 -19.11,-10.44 -36.21,-1.62 -45.39,3.12 -0.11,0.06 -0.22,0.12 -0.34,0.18 -10.32,-35.86 -12.64,-77.6 -7.07,-127.36 0.17,-1.55 -0.02,-3.05 -0.47,-4.44 14.7,-6.09 24.32,-17.27 30.35,-35.17 3.37,-10 5.65,-22.09 7.07,-36.59" /><path
         id="path46"
         style="fill:#ffffff;fill-opacity:1;fill-rule:nonzero;stroke:none"
         d="m 3775.96,4102.09 v 272.61 h -87.69 v -272.63 h -57.73 v -89.88 h 57.73 v -14.13 -430.4 h 87.69 v 430.4 14.13 0.02 h 57.73 v 89.88 h -57.73" /><path
         id="path48"
         style="fill:#ffffff;fill-opacity:1;fill-rule:nonzero;stroke:none"
         d="m 4194.65,4068.14 c 0,-26.13 0,-52.99 0,-83.7 -61.31,44.71 -126.11,53.37 -195.27,33.37 -40.11,-11.6 -71.68,-35.72 -95.4,-69.2 -46.14,-65.13 -42.46,-175.25 5.89,-234.38 35.41,-43.3 81.43,-66.21 136.2,-71.95 54.11,-5.67 102.61,10.6 148.54,43.83 0,-30.67 0,-58.13 0,-85 -73.21,-50.33 -235.21,-51.14 -328.9,48.25 -91.07,96.6 -91.82,275.57 -0.45,371.84 89.61,94.41 249.85,100.75 329.39,46.94" /><path
         id="path50"
         style="fill:#ccccc9;fill-opacity:1;fill-rule:nonzero;stroke:none"
         d="m 2822.76,6779.25 c -81.36,0 -155.85,-40.78 -204.38,-111.88 l -5.84,-8.55 -5.83,8.55 c -47.82,70.06 -122.17,111.88 -198.91,111.88 -54.19,0 -107.03,-18.87 -148.81,-53.14 l -11.54,-9.48 v 14.94 47.68 h -86.6 v -534.41 h 86.6 v 329.07 1.3 l 0.47,1.22 c 26.7,69.66 87.96,112.94 159.88,112.94 76.02,0 140.14,-50.99 163.35,-129.9 l 0.3,-1.01 -0.02,-1.06 -3.28,-310.37 h 86.6 v 304.98 0.93 l 0.24,0.9 c 22.04,82.33 87.89,135.53 167.77,135.53 75.53,0 140.07,-50.95 164.42,-129.81 l 0.32,-1.02 v -1.06 -310.45 h 84.43 l 1.07,282.65 c -6.24,49.55 -18.77,88.56 -38.31,119.26 -49.49,82.88 -126.7,130.31 -211.93,130.31" /><path
         id="path52"
         style="fill:#ccccc9;fill-opacity:1;fill-rule:nonzero;stroke:none"
         d="m 3523.52,6532.8 v -46.99 l -0.08,-0.5 c -12.62,-88.34 -87.18,-154.96 -173.42,-154.96 -96.27,0 -174.58,80.77 -174.58,180.05 0,46.95 18.21,91.43 51.28,125.24 33.19,33.94 76.98,52.63 123.3,52.63 86.24,0 160.8,-66.62 173.42,-154.97 z m -173.5,240.97 c -141,0 -255.71,-118.15 -255.71,-263.37 0,-71.51 26.71,-138.44 75.2,-188.47 48.19,-49.71 112.3,-77.09 180.51,-77.09 60.18,0 116.15,20.61 161.84,59.62 l 11.66,9.94 v -15.31 -54.25 h 85.5 v 534.41 h -85.5 v -59.72 -15.33 l -11.66,9.95 c -45.69,39.01 -101.65,59.62 -161.84,59.62" /><path
         id="path54"
         style="fill:#ccccc9;fill-opacity:1;fill-rule:nonzero;stroke:none"
         d="m 4465.71,6767.19 c -52.82,0 -104.67,-19.15 -149.97,-55.39 l -11.47,-9.18 v 14.7 333.45 h -87.7 v -805.95 h 86.62 l 1.08,306.11 v 1.06 l 0.31,1.02 c 23.86,76.31 88.6,127.58 161.13,127.58 75.52,0 138.78,-51.01 161.17,-129.95 l 0.28,-0.95 v -0.98 -303.89 h 83.38 c 2.11,245.34 2.13,262.99 2.13,278.34 -14.41,139.14 -120.52,244.03 -246.96,244.03" /><path
         id="path56"
         style="fill:#203563;fill-opacity:1;fill-rule:nonzero;stroke:none"
         d="m 5300.93,6536.36 c 1.91,5.98 5.69,8.63 8.52,9.81 7.03,2.89 13.55,-0.47 19.87,-3.73 9.53,-4.92 16.93,-8.05 25.5,-3.36 10.92,5.98 13.76,16.5 14.49,22.23 1.38,11.01 -2.54,22.32 -10.23,29.51 -5.71,5.33 -11.89,3.1 -23.61,-3.95 -6.48,-3.9 -13.17,-7.93 -20.26,-3.95 -2.44,1.38 -6.56,4.84 -6.6,12.54 -0.27,50.34 6.4,96 11.26,129.34 2.55,17.46 5.38,36.82 5.15,46.38 -14.95,-6.1 -32.2,-11.47 -46.63,-2.07 -12.03,7.84 -19.83,23.32 -20.85,41.42 -0.98,17.33 4.38,33.03 13.99,40.98 14.21,11.74 30.41,11.68 43.75,7.64 -14.75,77.32 -10.12,122.67 -7.55,138.25 h -24.31 -66.34 v -0.04 h -39.86 v -485.88 c 0,-94.93 -77.23,-172.15 -172.16,-172.15 -94.91,0 -172.14,77.22 -172.14,172.15 v 485.88 h -98.05 v -491.35 c 0,-78.92 43.82,-142.97 44.27,-143.61 50.2,-75.86 134.64,-121.11 225.92,-121.11 104.1,0 193.62,56.93 239.19,141.93 3.59,1.96 7.15,3.65 10.61,5.08 15.53,6.38 29.25,7.82 36.05,8.11 -5.87,54.59 -2.62,100.42 10.02,139.95" /><path
         id="path58"
         style="fill:#203563;fill-opacity:1;fill-rule:nonzero;stroke:none"
         d="m 5447.18,6899.33 h 127.26 c 88.21,0 165.58,-77.89 165.58,-166.68 0,-96.13 -74.28,-174.34 -165.58,-174.34 h -127.26 z m -98.04,-579.11 v -81.12 h 98.04 v 220.07 h 127.26 c 38.67,0 96.88,19.59 141.56,47.64 77.12,48.06 123.15,132.49 123.15,225.84 0,145.96 -118.75,264.71 -264.71,264.71 h -155.87 v 0.04 h -76.5 -9.36 -3.42 c -1.46,-7.1 -10.37,-58.19 11.15,-155.3 0.98,-4.39 -0.93,-8.92 -4.75,-11.29 -3.81,-2.37 -8.71,-2.09 -12.22,0.72 -0.87,0.68 -22.15,17.11 -38.43,3.64 -3.64,-3.01 -6.98,-12.03 -6.34,-23.45 0.64,-11.22 4.95,-20.74 11.26,-24.86 7.02,-4.59 21.43,1.52 32.99,6.44 l 1.74,0.73 c 1.39,0.6 2.87,0.91 4.42,0.84 4.66,-0.13 8.86,-2.15 11.82,-5.67 8.33,-9.9 5.51,-29.14 -0.09,-67.47 -4.35,-29.84 -10.18,-69.75 -10.96,-113.59 10.95,6.03 28.13,12.67 43.66,-1.83 12.78,-11.93 19.05,-29.74 16.79,-47.65 -2.09,-16.59 -11.32,-30.5 -25.34,-38.17 -19.11,-10.46 -36.21,-1.63 -45.39,3.11 -0.11,0.06 -0.22,0.12 -0.34,0.18 -10.32,-35.86 -12.64,-77.6 -7.07,-127.36 0.17,-1.55 -0.02,-3.05 -0.47,-4.44 14.7,-6.08 24.32,-17.27 30.35,-35.17 3.37,-10 5.65,-22.08 7.07,-36.59" /><path
         id="path60"
         style="fill:#ccccc9;fill-opacity:1;fill-rule:nonzero;stroke:none"
         d="m 3775.96,6779.27 v 272.61 h -87.69 v -272.63 h -57.73 v -89.88 h 57.73 v -14.13 -430.4 h 87.69 v 430.4 14.13 0.02 h 57.73 v 89.88 h -57.73" /><path
         id="path62"
         style="fill:#ccccc9;fill-opacity:1;fill-rule:nonzero;stroke:none"
         d="m 4194.65,6745.32 c 0,-26.13 0,-52.99 0,-83.7 -61.31,44.71 -126.11,53.37 -195.27,33.37 -40.11,-11.6 -71.68,-35.72 -95.4,-69.2 -46.14,-65.13 -42.46,-175.25 5.89,-234.37 35.41,-43.31 81.43,-66.22 136.2,-71.96 54.11,-5.68 102.61,10.6 148.54,43.83 0,-30.67 0,-58.12 0,-85 -73.21,-50.33 -235.21,-51.13 -328.9,48.25 -91.07,96.6 -91.82,275.57 -0.45,371.84 89.61,94.41 249.85,100.75 329.39,46.94" /></g></g></svg>